<svg width="137" height="145" viewBox="0 0 137 145" fill="none" xmlns="http://www.w3.org/2000/svg">
<path d="M104.75 84L117.19 98.22L133.92 108.91V84V59.83L116.87 69.22L104.75 84Z" fill="#00832D"/>
<path d="M32.5596 106.6V127.75C32.5596 132.58 36.4796 136.5 41.3096 136.5H62.4596L66.8396 120.52L62.4596 106.6L47.9496 102.22L32.5596 106.6Z" fill="#0066DA"/>
<path d="M62.4596 31.5L32.5596 61.4L47.9496 65.77L62.4596 61.4L66.7596 47.67L62.4596 31.5Z" fill="#E94235"/>
<path d="M32.5596 61.4H62.4596V106.61H32.5596V61.4Z" fill="#2684FC"/>
<path d="M104.75 84V106.6H62.46V136.5H125.17C130 136.5 133.92 132.58 133.92 127.75V108.91L104.75 84Z" fill="#00AC47"/>
<path d="M125.17 31.5H62.46V61.4H104.75V84L133.92 59.83V40.25C133.92 35.42 130 31.5 125.17 31.5Z" fill="#FFBA00"/>
<circle cx="69" cy="120" r="25" fill="#FFBA00"/>
<circle cx="112" cy="119" r="25" fill="#E94235"/>
<circle cx="69" cy="119" r="6" fill="#2684FC"/>
<circle cx="69" cy="119" r="2" fill="#E94235"/>
<circle cx="113" cy="119" r="6" fill="#00AC47"/>
<circle cx="113" cy="119" r="2" fill="#FFBA00"/>
<path d="M5.76594 62.6274L33 61.5L62.6173 31.5L62.6173 5.66284C62.1789 2.04245 57.7595 0.52217 55.1786 3.10311L3.10015 55.1815C0.490925 57.7907 2.08899 62.2738 5.76594 62.6274Z" fill="#00AC47"/>
</svg>

