<svg width="140" height="140" viewBox="0 0 140 140" fill="none" xmlns="http://www.w3.org/2000/svg">
<path d="M78.75 70L91.19 84.22L107.92 94.91L110.83 70.09L107.92 45.83L90.87 55.22L78.75 70Z" fill="#00832D"/>
<path d="M6.55957 92.6V113.75C6.55957 118.58 10.4796 122.5 15.3096 122.5H36.4596L40.8396 106.52L36.4596 92.6L21.9496 88.22L6.55957 92.6Z" fill="#0066DA"/>
<path d="M36.4596 17.5L6.55957 47.4L21.9496 51.77L36.4596 47.4L40.7596 33.67L36.4596 17.5Z" fill="#E94235"/>
<path d="M6.55957 47.4H36.4596V92.61H6.55957V47.4Z" fill="#2684FC"/>
<path d="M127.02 30.16L107.92 45.83V94.91L127.1 110.64C129.97 112.89 134.17 110.84 134.17 107.19V33.54C134.17 29.85 129.87 27.81 127.02 30.16Z" fill="#00AC47"/>
<path d="M78.75 70V92.6H36.46V122.5H99.17C104 122.5 107.92 118.58 107.92 113.75V94.91L78.75 70Z" fill="#00AC47"/>
<path d="M99.17 17.5H36.46V47.4H78.75V70L107.92 45.83V26.25C107.92 21.42 104 17.5 99.17 17.5Z" fill="#FFBA00"/>
</svg>
